<svg id="Layer_1" data-name="Layer 1" xmlns="http://www.w3.org/2000/svg" viewBox="0 0 868.25 442.94"><defs><style>.cls-1{fill:none;stroke-width:5px;}.cls-1,.cls-2{stroke:#000;stroke-miterlimit:10;fill-rule:evenodd;}.cls-2{stroke-width:0.25px;}</style></defs><title>chordcraft-sheetmusic-black</title><path class="cls-1" d="M470,681" transform="translate(-62.38 -52.46)"/><text x="-62.38" y="-52.46"/><path class="cls-2" d="M218.47,392h712v-5H219.69a260.43,260.43,0,0,1,9.57-29.4,335.69,335.69,0,0,1,13.88-30.9c1.51-3,3-5.87,4.58-8.7h32.37a39.49,39.49,0,0,0,78.82,0H382a18.64,18.64,0,0,0-1.81,8.84,8.24,8.24,0,0,0,3.06,6.13q3.06,2.79,11.47,2.8,2.26,0,7.52-2.1,8.61-3.81,22.81-15.67h4.33a22.16,22.16,0,0,0-.36,4.82c0,5.71,1.63,9.83,4.9,12.33a16.9,16.9,0,0,0,10.5,3.77q8.74,0,17.15-7A99.12,99.12,0,0,0,474.71,318h.64a68.76,68.76,0,0,0-3.28,19.43q0,9,5.6,13.56a1.27,1.27,0,0,0,.52.18,1.07,1.07,0,0,0,.53-.27q.34-.25-.18-1-2.44-3-2.45-8.75t3.33-14.87c1-2.83,2.13-5.6,3.31-8.32h20.88a29.93,29.93,0,0,0,5.21,9q13.13,15.39,39.37,15.4,20.47,0,43.93-9A107.51,107.51,0,0,0,620.2,318H640a18.64,18.64,0,0,0-1.81,8.84A8.24,8.24,0,0,0,641.2,333q3.06,2.79,11.47,2.8,2.26,0,7.52-2.1Q668.8,329.86,683,318h3.67a29.52,29.52,0,0,0-.93,7.27,9.59,9.59,0,0,0,3.59,7.61,12.88,12.88,0,0,0,8.66,3.06q5.07,0,14.09-5.34A61,61,0,0,0,726.84,318H728c-1.42,3.75-2.15,6.65-2.15,8.67a8.71,8.71,0,0,0,2.72,6.38,9.12,9.12,0,0,0,6.73,2.72q10.8,0,31.91-17.77h6.5q-3.23,10.28-3.23,16.54,0,11.37,6.47,16.63a.52.52,0,0,0,.35.17,3.08,3.08,0,0,0,.7-.17c.35-.12.29-.41-.17-.88q-2.28-2.62-2.28-7.87a47.73,47.73,0,0,1,2.45-13.3c1.16-3.74,2.54-7.44,4.09-11.12H816a30.82,30.82,0,0,0-1.25,8.14q0,12.42,11.73,12.43,8.56,0,18.81-7.44A150.18,150.18,0,0,0,860.53,318H930v-5H865.61c1.6-1.61,3.24-3.29,4.93-5.06.93-.81,1.22-1.57.87-2.27s-1.11-.41-2.27.87c-2.15,2.15-4.44,4.3-6.84,6.46H831.45a145.46,145.46,0,0,1,14.24-21.33,49.84,49.84,0,0,1,7.87-.7q8.06,0,11.73,3.67c.81.82,1.54,1,2.18.53s.5-1.52-.43-3.15q-3.67-5.61-15.58-7.53A238.23,238.23,0,0,1,869,265.42q7.53-7.19,7.53-8.14c0-.64-1.52-1-4.55-1a42.13,42.13,0,0,0-9.45,1.13q-4.9,1.14-6.3,2.72a56,56,0,0,0-3.77,5q-2.35,3.42-6.21,9.19T839.74,284a40,40,0,0,0-6.39,1.31,12.54,12.54,0,0,0-6.48,3.67q-2.19,2.55-1.75,4.29a5.49,5.49,0,0,0,1.58,2.8c.76.7,2.24.64,4.46-.17q-4.73,5.78-17.5,17l-.17.16H784.27a146.38,146.38,0,0,1,11.54-20.11,52.18,52.18,0,0,1,13.48-2.1c3.85,0,6.7.56,8.57,1.66s2.92,1.38,3.15.79c.82-1.51-.93-3.91-5.25-7.17q-3.33-2.62-13-3.5,13.65-18.56,24-25.2a21.14,21.14,0,0,1,11.72-3.5c1.17,0,2.48,0,3.94.08a9.93,9.93,0,0,1,5.16,2.28,10.83,10.83,0,0,1,4,6.21c.11.59.37.88.78.88s.62-.24.62-.7q0-7.35-8-13a25.39,25.39,0,0,0-14.7-4.2,29.43,29.43,0,0,0-16.63,5.42q-12.07,8.24-25,32.2c-3.85.82-6.6,1.93-8.23,3.33a7.68,7.68,0,0,0-2.53,3.76,8.42,8.42,0,0,0-.09,3.67,11.71,11.71,0,0,0,1,3.07,5.13,5.13,0,0,0,1,1.57,1.25,1.25,0,0,0,1.31,0c-1,2.37-2,4.63-2.84,6.82a5.35,5.35,0,0,0-.83.71c-2.66,2.5-5.25,4.81-7.78,7H746.38c.18-.24.35-.47.52-.68,1.34-1.75,2.65-3.39,3.94-4.9l3.24-3.85a4.68,4.68,0,0,0,1.31-2.8A3.3,3.3,0,0,0,755,299q-2.28-3.86-7.53-3.85-1.39-4.2-6.56-7.27a20.66,20.66,0,0,0-10.67-3.06A35.39,35.39,0,0,0,719,286.77a47.93,47.93,0,0,0-21.7,13.12,52.89,52.89,0,0,0-6.11,7.85q-3,2.72-6.12,5.26H660.89a163.13,163.13,0,0,1,10.67-13.63q2.28-2.81,2.28-4.2a4.88,4.88,0,0,0-.35-2.1q-2.62-4.56-8.75-4.55-12.43,0-18.9,2.1a21.58,21.58,0,0,0,4.9-4.55q5.41-6.82,5.43-12.6,0-4.2-3.86-4.2-4.54,0-8.75,7.35a19.79,19.79,0,0,0-2.71,7c-.17,1.75-.26,3.23-.26,4.46a3.29,3.29,0,0,0,1.58,2.89A105.34,105.34,0,0,1,628,307.78l-.33.16c-2.2,1.8-4.41,3.49-6.61,5.06H508.1a27.89,27.89,0,0,1-1.56-9.43q0-19.43,23.1-40.95A160.81,160.81,0,0,1,554.19,244h72.22a61.16,61.16,0,0,1-8.74,8.29,141.32,141.32,0,0,1-30.37,18.46q-2.67,1.2-5.11,2.2a9.58,9.58,0,0,0,1.75-6.48c-.76-6.76-9.31-11.34-19.08-10.24s-17.07,7.48-16.31,14.25c.48,4.24,4,7.62,9,9.28,1.16,1.21,4,2,8.49,2.46,1.75.11,3.47.17,5.16.17s4.14-.14,7.35-.44,8.87-1.8,17-4.55a188,188,0,0,0,24.32-10.23,80.47,80.47,0,0,0,20.83-14.79A34.58,34.58,0,0,0,647,244H929.5v-5H648.9a17.51,17.51,0,0,0,.44-3.86,13.51,13.51,0,0,0-4.55-10.32q-7.87-6.82-22-6.83-23.1,0-49.87,12.43-8.72,4-16.6,8.58H253.09q4.47-7.2,8.2-13.4a82.1,82.1,0,0,0,18.9,8.32A67,67,0,0,0,299.54,237q11.54,0,18.07-5.25t6.53-15.6a20.26,20.26,0,0,0-1-6.3,14.55,14.55,0,0,0-1.21-2.7,9.44,9.44,0,0,0,0-1.68c-.76-6.76-9.31-11.34-19.08-10.24s-17.07,7.48-16.31,14.25,9.31,11.34,19.08,10.24a23.46,23.46,0,0,0,10.11-3.51,24.39,24.39,0,0,1-6.45,6.24,30.44,30.44,0,0,1-9.75,4.12,47.56,47.56,0,0,1-11,1.28,55.39,55.39,0,0,1-13.2-1.58,42.28,42.28,0,0,1-11.55-4.57q2.54-4,4.87-7.73t2.33-5a21,21,0,0,0-1.28-6.83,25.52,25.52,0,0,0-3.52-6.75,21.79,21.79,0,0,0-5.33-5.17,11.38,11.38,0,0,0-6.52-2.1,11.25,11.25,0,0,0-2.1.15,7.94,7.94,0,0,0-4.5-1.2,8.46,8.46,0,0,0-6.15,2.7,10.14,10.14,0,0,0-2.7,7.5q0,7,6.15,14.4-3.47,6.75-7.8,14.4-3.76,6.58-7.63,12.95H178.29q6.74-6.42,13.11-13.32,9.53-10.35,17-19.65,5.25-7,10-13.95a125.57,125.57,0,0,0,8.25-13.8,81,81,0,0,0,3.66-8.28h60.4a61,61,0,0,0,10.87.93,57.8,57.8,0,0,0,10.18-.93h104c5,1.75,10,3.33,15,4.68a189.49,189.49,0,0,0,23.62,4.95,166.91,166.91,0,0,0,23.48,1.65,171.42,171.42,0,0,0,32.77-3.07A171.07,171.07,0,0,0,539.52,170H929v-5H551.06a135.61,135.61,0,0,0,14.44-8.09,105.74,105.74,0,0,0,19.73-16.2A70.82,70.82,0,0,0,598,122.33a45.52,45.52,0,0,0,4.5-19.5,42.06,42.06,0,0,0-.56-6.83H928.5V91H600.77c-.19-.66-.39-1.31-.62-2a41.59,41.59,0,0,0-7.57-13v-.3a41.48,41.48,0,0,0-16.13-10.05,64,64,0,0,0-20.77-3.15A92.94,92.94,0,0,0,539.33,64a98.44,98.44,0,0,0-16.43,4.43,102.87,102.87,0,0,0-15.45,7.12A75.63,75.63,0,0,0,494,85.13,36.43,36.43,0,0,0,488.57,91H415.72a32.91,32.91,0,0,0-1.94-3.54,45.6,45.6,0,0,0-14.7-14.25,73.77,73.77,0,0,0-21.68-8.78,111.4,111.4,0,0,0-26.32-3A109.72,109.72,0,0,0,280,86.93a13.82,13.82,0,0,1-2,1.88c-.7.55-1.4,1.07-2.1,1.57-.3-.1-.95-.37-1.95-.82s-2-1-3-1.5-1.9-1.08-2.7-1.58-1.2-.85-1.2-1a18.79,18.79,0,0,0,.82-3.52,26.18,26.18,0,0,0,.23-3.38,22.12,22.12,0,0,0-4.88-14.4,27.07,27.07,0,0,0-11.77-8.55A6.05,6.05,0,0,0,249,54.46c-1.25-.35-2.7-.68-4.35-1s-3.37-.52-5.17-.67-3.4-.23-4.8-.23a69.67,69.67,0,0,0-16.35,2,115.62,115.62,0,0,0-17.1,5.62q-5.1-.75-10.2-1.2t-10.2-.45a93.15,93.15,0,0,0-14.4,1.2,114.32,114.32,0,0,0-15.15,3.45A96.7,96.7,0,0,0,137,68.78a63.42,63.42,0,0,0-12.07,7.5,37.76,37.76,0,0,0-8.4,9.15A19.83,19.83,0,0,0,114,91H62.5v5h50.83v.08q0,6.15,4.65,12.75a28.52,28.52,0,0,0,3.45,4,22.24,22.24,0,0,0,4.65,3.37,289.93,289.93,0,0,0-21.9,27.23A247,247,0,0,0,90.44,165H63v5H87.71c-.33.64-.68,1.27-1,1.91a163.79,163.79,0,0,0-11.62,28.35,92.84,92.84,0,0,0-4.2,26.62A61.2,61.2,0,0,0,72.07,239H63.5v5h9.81c0,.14.07.29.12.43a44.63,44.63,0,0,0,7.72,14.93,37.42,37.42,0,0,0,13.2,10.42q8,3.9,19.13,3.9a71.17,71.17,0,0,0,14.7-1.65,30,30,0,0,0,12.22,12.23,37,37,0,0,0,17.18,3.82,43.14,43.14,0,0,0,8-.75,33.57,33.57,0,0,0,7.5-2.32,24.27,24.27,0,0,0,6.3-4.05,21.46,21.46,0,0,0,4.58-5.78l.33-.95a12.5,12.5,0,1,0-12.16,4.54c-.58.41-1.16.82-1.75,1.21a30.35,30.35,0,0,1-17,5.55A26.4,26.4,0,0,1,141,282.16a24,24,0,0,1-10.12-10.73,71.28,71.28,0,0,0,19.8-9.82,201.27,201.27,0,0,0,20.85-16.35c.46-.41.91-.84,1.37-1.26h53.69q-5.13,8.16-11.2,17.22-7.2,10.72-13.58,22a164.52,164.52,0,0,0-10.72,22.88c-.87,2.3-1.59,4.58-2.2,6.85H64v5H187.75a58,58,0,0,0-1,10.65,33.83,33.83,0,0,0,1.2,8.85,29.59,29.59,0,0,0,3.6,8.32,22.48,22.48,0,0,0,6.07,6.45,18.2,18.2,0,0,0,8.48,3.23c-.18-.18-.34-.37-.51-.55.31,0,.61.05.92.05a12.5,12.5,0,1,0-8-22.11,37.77,37.77,0,0,1,1.5-7.24,73.74,73.74,0,0,1,2.87-7.65h27.88l-.75,1.72q-6.07,14.17-10.87,28.65a242.63,242.63,0,0,0-7.65,28.5c-.71,3.48-1.29,6.85-1.73,10.13H64.5v5H209.19c-.36,3.72-.55,7.3-.55,10.75a60.06,60.06,0,0,0,3.15,20.32,27.3,27.3,0,0,0,4.68,8.32,12.51,12.51,0,1,0-.45-10.83,56.33,56.33,0,0,1-.33-6.11A103.4,103.4,0,0,1,218.47,392Zm638.05-74q-4.54,3.79-9.61,7.62-9.79,7.51-15.22,7.52-5.09,0-5.08-6.12a16.7,16.7,0,0,1,1.23-5.6c.34-1.1.77-2.24,1.26-3.42ZM818,312c-.15.35-.27.69-.4,1h-.7ZM244.49,199.35a14.28,14.28,0,0,1-1.5-5.85,4,4,0,0,1,3.75-4.35h.9A6.46,6.46,0,0,1,253,192a31.49,31.49,0,0,1-1.58,5.85,82.06,82.06,0,0,1-3.37,8A43.85,43.85,0,0,1,244.49,199.35Zm-20-22.57a124.26,124.26,0,0,1-8,13.2q-4.57,6.6-9.67,13.2-5,6.3-10.8,13t-12.3,13.43q-4.65,4.8-9.53,9.34h-39c1.45-3.37,3.1-6.85,5-10.47q5.18-10,12.08-20.92t14.55-21.38q6.21-8.5,12.66-16.23h48.23C226.7,172.26,225.66,174.52,224.48,176.78Zm5.4-13.2c-.14.48-.31.95-.46,1.42H183.65q7.35-8.42,14.2-15a95,95,0,0,1,13.8-11.25q6.38-4.12,10.73-4.13a7.09,7.09,0,0,1,3.6,1.05,15.09,15.09,0,0,1,4.5,6.53,24.36,24.36,0,0,1,1.35,8.17A46.38,46.38,0,0,1,229.88,163.58Zm52.27,1a46.46,46.46,0,0,1-13.8-8.7,37,37,0,0,1-8.55-11.62,30.21,30.21,0,0,1-2.92-12.68,37.81,37.81,0,0,1,3.3-15.22,66.64,66.64,0,0,1,8.55-14.33,2.36,2.36,0,0,1,.9.6,9.79,9.79,0,0,0,1.05.9l16.72,14q8.63,7.2,17.63,13.73a209,209,0,0,0,18.37,11.92A120.65,120.65,0,0,0,342.23,152a63.77,63.77,0,0,1-5.7,5,54.38,54.38,0,0,1-7.2,4.72,65.69,65.69,0,0,1-7.87,3.22H283.09Zm-123.67-58q4.2-4.43,8.4-8.78l1.65-1.2.71-.68h87.55a60.45,60.45,0,0,1-12.59,6.76A163.19,163.19,0,0,1,221.7,110a238.39,238.39,0,0,1-26.55,5,204.28,204.28,0,0,1-27.07,1.87q-4.65,0-9.08-.22t-8.62-.83Q154.28,111.08,158.48,106.66ZM260.73,91l-9.63-7.82A66,66,0,0,0,240.23,76q6,2.4,11.92,5.33t11.93,6.07a13,13,0,0,1-2.7,3.6l0,0Zm138,7.56a48.76,48.76,0,0,1,8.85,11.77,26.29,26.29,0,0,1,3.23,12.3,22.26,22.26,0,0,1-1.88,8.55,30,30,0,0,1-5.62,8.63,40.21,40.21,0,0,1-9.3,7.42,47,47,0,0,1-12.9,5.1q-7.2-3.6-14.48-7.5t-14.32-8a4.57,4.57,0,0,0,.6-2.47c.1-1.35.15-2.43.15-3.23a28,28,0,0,0-2.48-12.3,29.8,29.8,0,0,0-5.85-8.4,23.06,23.06,0,0,0-6.82-4.8,14.9,14.9,0,0,0-5.55-1.5A6,6,0,0,0,329,105a12.49,12.49,0,0,0-11.84,10.51l-3.82-2.42q-13.94-9-27.83-17.11H396C396.93,96.84,397.84,97.69,398.7,98.56ZM273.3,96.68c.19-.22.41-.45.62-.68h5.44q16.14,9.47,32.34,19.88,2.7,1.74,5.45,3.47a12.47,12.47,0,0,0,16.34,10q7.81,4.64,15.94,9.19a30.75,30.75,0,0,1-2.1,5.63,31.26,31.26,0,0,1-3.3,5.32,106.45,106.45,0,0,1-18.68-8.7q-9.23-5.4-18.15-11.85t-17.55-13.65q-8.62-7.2-16.72-14.1a4,4,0,0,1-1.05-.75l-.9-.9C271.78,98.53,272.55,97.58,273.3,96.68ZM342,117.5s0-.09,0-.13c.44.16.83.31,1.14.46a8.22,8.22,0,0,1,3.6,2.25,11.55,11.55,0,0,1,2.1,3.3,14,14,0,0,1,1,3.9,38.08,38.08,0,0,1,.23,4.05c0,.7,0,1.38-.08,2s-.12,1.32-.22,2c-4.38-2.55-8.69-5.13-13-7.71A12.46,12.46,0,0,0,342,117.5ZM351.68,140q6.15,3.45,12.22,6.83t12.53,6.37c-1.5.2-3,.35-4.43.45s-2.87.15-4.27.15a68.32,68.32,0,0,1-21.15-3.45q1.65-2.55,3-5.17A29.64,29.64,0,0,0,351.68,140Zm-7.35,12.9a72.31,72.31,0,0,0,22.95,3.9,45.56,45.56,0,0,0,6.45-.45q3.15-.45,6.6-1.2,11.49,5.49,22.2,9.82H328a51.68,51.68,0,0,0,8.35-4.72A39.27,39.27,0,0,0,344.33,152.93ZM266.71,96h4c-.56.6-1.13,1.23-1.71,1.88C268.22,97.24,267.46,96.61,266.71,96ZM510.3,175.58a166,166,0,0,1-31.87,3A180.67,180.67,0,0,1,443.1,175a179.8,179.8,0,0,1-19.27-5H531.75A174.26,174.26,0,0,1,510.3,175.58ZM530.1,74.26a58.28,58.28,0,0,1,12.23-6.83,37.28,37.28,0,0,1,14.1-2.55,56,56,0,0,1,17.1,2.85,49.63,49.63,0,0,1,8.85,4,37.24,37.24,0,0,1,8,6.07,44.79,44.79,0,0,1,7.2,12.68l.18.54H517.18a15.82,15.82,0,0,0-4.09-2.36c1.76-1.53,3.46-3.06,5.09-4.56A127.38,127.38,0,0,1,530.1,74.26ZM486.14,96a7.63,7.63,0,0,0-.21,1.73v.09a8.87,8.87,0,0,0-.38,3.66c.77,6.76,9.31,11.34,19.08,10.24s17.08-7.48,16.31-14.25a9.15,9.15,0,0,0-.31-1.47H599a39.12,39.12,0,0,1,.74,7.58A41.57,41.57,0,0,1,595.35,122,70.46,70.46,0,0,1,583,139.43,100.7,100.7,0,0,1,563.85,155a136.73,136.73,0,0,1-19,10h-135c-1.17-.46-2.34-.93-3.51-1.42q-5.4-2.25-10.8-4.57t-10.8-4.88a48,48,0,0,0,13.05-6.82,53,53,0,0,0,18.6-24.45,45,45,0,0,0,2.85-16A38,38,0,0,0,417.65,96ZM302.55,77a80.17,80.17,0,0,1,27.53-4.65,98.16,98.16,0,0,1,19.87,2,120.45,120.45,0,0,1,18.83,5.47,95.63,95.63,0,0,1,16.65,8.25q2.22,1.4,4.27,2.87H279.06A77.11,77.11,0,0,1,302.55,77ZM270,90.53l.82.47H265c.08-.16.17-.31.24-.47a12.09,12.09,0,0,1,1.05-2C267.53,89.18,268.75,89.83,270,90.53ZM220.43,62q2.25-.75,4.35-1.5a45.78,45.78,0,0,1,7.27-1.5,59.89,59.89,0,0,1,7.28-.45,46.28,46.28,0,0,1,9.67,1,25.21,25.21,0,0,1,8.18,3.22,18.36,18.36,0,0,1,5.92,6,20.59,20.59,0,0,1,2.78,9.3c0,1.1,0,2.2-.08,3.3a11.05,11.05,0,0,1-.52,3q-11.85-6-24.15-11.55a166.7,166.7,0,0,0-25-9A33.16,33.16,0,0,1,220.43,62Zm-10.2,4.2A122.3,122.3,0,0,1,236.7,77.41,119.05,119.05,0,0,1,256,91H174.57Q192.39,74.85,210.23,66.23ZM121.05,86.41a32.81,32.81,0,0,1,7.5-8,63.82,63.82,0,0,1,10.95-6.75,92.16,92.16,0,0,1,13.13-5.25,103.38,103.38,0,0,1,14.1-3.38,84,84,0,0,1,13.8-1.2q3.75,0,7.5.3t7.5.9A185.76,185.76,0,0,0,177.68,73q-8.85,5.55-17.7,12.15l-1.5,1.2-.9.9a4,4,0,0,1-1.05.75l-1.2.9c-.84.7-1.66,1.42-2.49,2.12H118.9A17.63,17.63,0,0,1,121.05,86.41ZM124.88,107a18.19,18.19,0,0,1-4.65-5A13.42,13.42,0,0,1,118.31,96h28.76c-1.33,1.18-2.67,2.35-4,3.53q-5.92,5.4-11.62,11.25A34.53,34.53,0,0,1,124.88,107Zm-4.65,48.45a384,384,0,0,1,23.55-31.8,126.17,126.17,0,0,0,34.5,4.35,158,158,0,0,0,23.62-1.8,126.1,126.1,0,0,0,23-5.7,97.32,97.32,0,0,0,20.62-10A66.36,66.36,0,0,0,261.65,96h.41c.73.72,1.5,1.43,2.32,2.11a31.57,31.57,0,0,0,2.7,2,69.11,69.11,0,0,0-9.53,16.13A43,43,0,0,0,254,132.83a31.29,31.29,0,0,0,3.3,13.73,38.07,38.07,0,0,0,9.52,12.22,46.63,46.63,0,0,0,9.29,6.22H232c0-.2.13-.39.18-.59a51.16,51.16,0,0,0,2-14.33,26.87,26.87,0,0,0-1.65-9.6,21.27,21.27,0,0,0-4.65-7.42,20.46,20.46,0,0,0-7.13-4.73,23.78,23.78,0,0,0-8.92-1.65q-8.85,0-18.75,5.25a91.67,91.67,0,0,0-19.58,14.33A155.64,155.64,0,0,0,156.72,165H114.14C116.09,161.84,118.11,158.67,120.23,155.48ZM88.65,218.33A209.22,209.22,0,0,1,101.25,188q4.47-8.9,9.86-18H153a170.76,170.76,0,0,0-13.73,22.83,155.18,155.18,0,0,0-10.73,27.75A107.76,107.76,0,0,0,125.06,239H84.3A93.66,93.66,0,0,1,88.65,218.33Zm25,51.9q-14.1,0-21.83-6.22t-7.72-20h40.61c-.07,1.45-.11,2.9-.11,4.33a78.54,78.54,0,0,0,.6,9.75,60.72,60.72,0,0,0,1.95,9.45.94.94,0,0,0,.15.53.91.91,0,0,1,.15.52A63.16,63.16,0,0,1,113.63,270.23Zm42.9-16.5a117.92,117.92,0,0,1-13.65,8.78,58.34,58.34,0,0,1-13,5.32,8.93,8.93,0,0,1-.83-2.62,19.83,19.83,0,0,1-.22-3.08q0-6,3.07-14.77c.39-1.1.81-2.23,1.24-3.36h35.5Q162.56,249.27,156.53,253.73Zm163,90.88c-19.72,0-35.87-11.73-37.31-26.61h74.62C355.37,332.88,339.22,344.61,319.5,344.61ZM282.26,313c1.86-14.55,17.82-25.91,37.24-25.91s35.38,11.36,37.24,25.91Zm114.21-16.78q-4.29,7.08-11.06,16.78h-17.5A141.59,141.59,0,0,0,387,291.67a14.7,14.7,0,0,0,3.41.17,13.48,13.48,0,0,1,5.42,1C397.31,293.45,397.52,294.58,396.47,296.22Zm18.11,25.9q-11.11,7.17-14.7,7.17t-3.59-3.06c0-1.71,1.14-4.46,3.4-8.23h20.9C418.63,319.41,416.63,320.79,414.58,322.12ZM479,301.55c.64.53,1.49.44,2.54-.26q-2.28,5.25-3.68,9.28c-.52.82-1.08,1.63-1.67,2.43H447.48a48.87,48.87,0,0,1,6.74-9.61q8-9.09,16.27-12.25a17.79,17.79,0,0,1,5.95-1.4q4.38,0,4.38,3.5a10.76,10.76,0,0,1-1.4,4.81C478.48,299.86,478.34,301,479,301.55Zm-7.61,16.89Q457.2,332.79,450,332.79a4.52,4.52,0,0,1-1.75-.35q-4-1.21-4-7.35a23.45,23.45,0,0,1,1.15-7.09H471.8C471.65,318.15,471.52,318.3,471.37,318.44Zm239.31,9.8q-5.7,3.15-8.14,3.15-3,0-3-3.67c0-2.48,1.22-5.73,3.62-9.72h20.24Q715.67,325.49,710.68,328.24Zm65.88-18.54c-.43,1.13-.83,2.23-1.21,3.3h-2.43Q774.71,311.41,776.56,309.7Zm-13,8.3a112,112,0,0,1-13.24,9q-6.12,3.32-8.83,3.32c-1.81,0-2.72-1-2.72-3.15s1-4.66,3.07-7.7c.34-.52.68-1,1-1.49Zm-34.24-25.63a22.07,22.07,0,0,1,8.75-2.28c3.85,0,5.78,1.26,5.78,3.76s-2.74,6.63-8.23,12.34c-1.63,1.64-3.61,3.56-6,5.78l-1.08,1H706.53q2.46-3.39,5.81-7.33Q720.38,296.22,729.31,292.37Zm-56.78,29.75q-11.12,7.17-14.7,7.17c-2.4,0-3.59-1-3.59-3.06,0-1.71,1.14-4.46,3.4-8.23h20.9C676.58,319.41,674.58,320.79,672.53,322.12ZM645,291.67a14.9,14.9,0,0,0,3.42.17,13.52,13.52,0,0,1,5.42,1c1.46.65,1.66,1.78.62,3.42q-4.29,7.08-11.06,16.78H626l1.06-1A145.29,145.29,0,0,0,645,291.67ZM613.4,318a91.36,91.36,0,0,1-12.27,6.22A158.12,158.12,0,0,1,569.37,333a126.93,126.93,0,0,1-18,1.57,65.64,65.64,0,0,1-29.4-6.47,28.55,28.55,0,0,1-11.2-9.8c-.06-.09-.11-.18-.16-.27Zm-43-83q23.63-11.73,44.1-11.73a31.48,31.48,0,0,1,11.63,2.1q5.34,2.1,5.34,7.53a13.52,13.52,0,0,1-1.67,6.13H562.75C565.26,237.62,567.79,236.27,570.42,235Zm-22.37,9a166.2,166.2,0,0,0-21,16q-25.38,22.93-25.38,46.38a35.6,35.6,0,0,0,.62,6.63H485a136,136,0,0,1,10.84-18.62Q506,279.77,516.69,267T531,251.94a15.88,15.88,0,0,0-10.85-3.67,14.12,14.12,0,0,0-11,4.9q-4,4.54-11.29,16.53A283,283,0,0,0,484.32,295a7.69,7.69,0,0,0-3.42-6.39q-3.4-2.53-10.76-2.53a41.34,41.34,0,0,0-17,4,46,46,0,0,0-15.4,11.2q-8.29,8.94-11,11.71H402.94a163.41,163.41,0,0,1,10.68-13.63q2.26-2.81,2.27-4.2a4.88,4.88,0,0,0-.35-2.1q-2.62-4.56-8.75-4.55-12.42,0-18.9,2.1a21.38,21.38,0,0,0,4.9-4.55q5.43-6.82,5.43-12.6c0-2.8-1.29-4.2-3.85-4.2q-4.56,0-8.75,7.35a19.4,19.4,0,0,0-2.71,7,44.56,44.56,0,0,0-.27,4.46,3.31,3.31,0,0,0,1.58,2.89,110.94,110.94,0,0,1-19.91,22h-5.4a39.49,39.49,0,0,0-78.82,0h-29.6q4.26-7.51,8.62-14.28A192.28,192.28,0,0,1,275.16,277q7.88-9.08,14.18-12.07a3.87,3.87,0,0,0,1.65-1.36,4.76,4.76,0,0,0,.6-1.5,10.06,10.06,0,0,0-1.5-2.25q-1.51-1.94-3.45-4.34c-1.31-1.6-2.53-3-3.68-4.35a21.6,21.6,0,0,1-1.87-2.25,7.53,7.53,0,0,0-2.18-1.2,6,6,0,0,0-1.72-.3,23.83,23.83,0,0,0-6.23,1.57,113.38,113.38,0,0,0-10.57,4.35q-6,2.78-12.75,6.52a146,146,0,0,0-12.75,8q7-11,14-22.05L250,244ZM205.27,313a102.88,102.88,0,0,1,5.62-9.63q3.6-5.47,7.2-10.72a15.33,15.33,0,0,0,2,2.77,13,13,0,0,0,3.38,2.62,12.91,12.91,0,0,1-.6-4.19c0-4.2,1.59-8.33,4.8-12.38a56.92,56.92,0,0,1,11.7-11,90.42,90.42,0,0,1,14.4-8.48,63.85,63.85,0,0,1,12.9-4.72,97,97,0,0,0-11.4,14.54,250.26,250.26,0,0,0-12.75,21.61q-4.9,9.21-9.58,19.6Z" transform="translate(-62.38 -52.46)"/></svg>