<svg id="Layer_1" data-name="Layer 1" xmlns="http://www.w3.org/2000/svg" viewBox="0 0 1000 331.65"><defs><style>.cls-1{fill-rule:evenodd;}</style></defs><title>chordcraft-sheetmusic-black-hip</title><path class="cls-1" d="M395.7,223.33s17.84,0,17.4-21.15h-6.45c1.5,15.61-10.95,15.61-10.95,15.61-8.85,0-11.1-11.09-11.1-15.61V116.43c0-3.61,1.2-16.51,10.95-16.51,0,0,12.6,0,11.1,16.51h6.45c.44-22.05-17.55-22.05-17.55-22.05s-17.7,0-17.4,22.05v85.75C377.85,223.33,395.7,223.33,395.7,223.33Z" transform="translate(0 0)"/><path class="cls-1" d="M432.89,202.18H433V168.27C432.59,154,443.69,154,443.69,154s11.1,0,10.8,14.32v55.06h6.15V168.27c0-19-16.95-19-16.95-19-4.95,0-8.4,1.55-10.8,3.74v-35.2h-6.3V223.33h6.3Z" transform="translate(0 0)"/><path class="cls-1" d="M501.74,223.85s17.4,0,17-19V168.65c0-19-17.1-19-17.1-19s-17.25,0-16.95,19.08v36.11C484.64,223.85,501.74,223.85,501.74,223.85ZM490.79,205V168.78h.15c-.45-14.31,10.65-14.31,10.65-14.31s11.1,0,10.8,14.18v36.24c.45,14.44-10.8,14.44-10.8,14.44-10.35,0-10.8-12.63-10.8-14.18Z" transform="translate(0 0)"/><path class="cls-1" d="M528,161.69h4.2c0-9.41,0-9.41,3.75-9.41,0,0,4.65,0,4.65,9.41v42.68c0,19,15.15,19,15.15,19h.9v-4.77c-.3,0-.6.13-.9.13-9.45,0-8.85-13.93-8.85-14.32V161.69c.9-12.64-11.1-12.64-11.1-12.64-10,0-9.75,0-9.75,12.64Z" transform="translate(0 0)"/><path class="cls-1" d="M589.49,223.33a15,15,0,0,0,14-8.25,15,15,0,0,0,13.94,8.25h.9v-5.42c-.3,0-.6.13-.9.13-10.34,0-11-14.18-11-16.12V117.85h-6.14v35.72a15,15,0,0,0-10.95-4.13c-16.35,0-17,19.09-17,21.54v31.2C572.39,205.41,573.59,223.33,589.49,223.33Zm-11-22.7V171c0-16.12,11-16.12,11-16.12,9.59,0,10.8,12.38,10.8,15.6v32.11c0,3.48-1.21,15.47-10.8,15.47-10,0-11-13.15-11-15.86Z" transform="translate(0 0)"/><path class="cls-1" d="M643.63,223.33s17.4,0,17-19h-6.15c.3,14.32-10.8,14.32-10.8,14.32-10.35,0-10.8-12.64-10.8-14.19V168.14c-.45-14.32,10.8-14.32,10.8-14.32s11.1,0,10.8,14.32h6.15c.45-19.09-17-19.09-17-19.09s-17.4,0-17.1,19.09v36.23C626.53,223.33,643.63,223.33,643.63,223.33Z" transform="translate(0 0)"/><path class="cls-1" d="M669.13,161.69h4.2c0-9.41,0-9.41,3.75-9.41,0,0,4.65,0,4.65,9.41v42.68c0,19,15.15,19,15.15,19h.9v-4.77c-.3,0-.6.13-.9.13-9.45,0-8.85-13.93-8.85-14.32V161.69c.9-12.64-11.1-12.64-11.1-12.64-10,0-9.75,0-9.75,12.64Z" transform="translate(0 0)"/><path class="cls-1" d="M730.48,223.07a14.87,14.87,0,0,0,13.95-8.38c2.4,4.51,6.6,8.38,14.1,8.38h.9v-5.54a2.17,2.17,0,0,1-.9.13c-10.5,0-10.95-14.19-10.95-16.12V148.8h-6.3v4.12c-2.4-2.45-6-4.12-10.95-4.12-16.35,0-17.1,19.08-17.1,21.66v30.82C713.23,223.07,730.48,223.07,730.48,223.07Zm-11-21.79V170.46c0-16.25,11-16.25,11-16.25,10.35,0,10.8,14.19,10.8,16.25v30.82c.45,16.38-10.8,16.38-10.8,16.38-10.65,0-11-14.83-11-16.25Z" transform="translate(0 0)"/><path class="cls-1" d="M789.88,184.77h20.84v-4.9H789.88V168.14c-.3-14.32,10.8-14.32,10.8-14.32s11.1,0,10.79,14.32h6.3c.31-19.09-17.09-19.09-17.09-19.09s-17.4,0-16.95,19.09v55.19h6.15Z" transform="translate(0 0)"/><path class="cls-1" d="M838.33,202.31h.14c-.14,1.42.16,21,16.35,21h.9V218c-.3,0-.6.13-.9.13-10.19,0-10.49-14.7-10.49-15.86h.14v-48h5.7v-5.16h-5.7V118h-6.14v31.2h-5.55v5.16h5.55Z" transform="translate(0 0)"/><path class="cls-1" d="M0,0V331.65H1000V0ZM10,121.74H46.61A15.53,15.53,0,0,0,46,126a17.1,17.1,0,0,0,2.48,8.46,18.26,18.26,0,0,0,1.84,2.63,12.17,12.17,0,0,0,2.48,2.24,188.81,188.81,0,0,0-11.68,18.06c-.65,1.14-1.27,2.28-1.89,3.42H10ZM245.29,129v.2l.88.8.24-.2a3.73,3.73,0,0,0,1,.2,7.17,7.17,0,0,0,3.28-1.05,19.51,19.51,0,0,0,4.24-3.33q1.95-2,3.73-3.88h45.47c.06.18.13.37.18.55a31.72,31.72,0,0,1,1.2,8.7,33.18,33.18,0,0,1-2.36,12.19,47.72,47.72,0,0,1-6.6,11.59,54.61,54.61,0,0,1-5.4,6.06H196.76c.33-.28.66-.54,1-.83a32.54,32.54,0,0,0,5.89-7.12,38.61,38.61,0,0,0,4-9.1,36.51,36.51,0,0,0,1.52-10.6,28.54,28.54,0,0,0-2.2-11.44h39.8a15.29,15.29,0,0,0-.94,1.59,8.58,8.58,0,0,0-1,3.78A3.26,3.26,0,0,0,245.29,129Zm22.87-17.26.22-.2A29.55,29.55,0,0,1,274.9,107a16.47,16.47,0,0,1,7.52-1.7,23.31,23.31,0,0,1,4.36.45,24.48,24.48,0,0,1,4.77,1.44,25,25,0,0,1,4.72,2.64,21.15,21.15,0,0,1,2.28,1.89ZM110.47,160.83a21,21,0,0,0-.84-5.36,15,15,0,0,0-2.49-4.93,11.07,11.07,0,0,0-3.8-3.13,10.5,10.5,0,0,0-4.76-1.09q-4.72,0-10,3.48a50.79,50.79,0,0,0-10.45,9.5c-.43.5-.85,1-1.27,1.53H52.2q4.75-8.51,10-16.5a55.14,55.14,0,0,0,18.41,2.88A68.79,68.79,0,0,0,93.26,146a57.23,57.23,0,0,0,12.28-3.78,48.8,48.8,0,0,0,11-6.67,39.6,39.6,0,0,0,8.68-9.75c.43.53.88,1,1.36,1.54a17.8,17.8,0,0,0,1.44,1.35A49.14,49.14,0,0,0,123,139.4a34.65,34.65,0,0,0-1.88,11,25,25,0,0,0,1.76,9.1c.18.45.39.89.59,1.33ZM52.32,233.47a48.23,48.23,0,0,0,1,6.27.75.75,0,0,0,.08.35.78.78,0,0,1,.08.35,27.4,27.4,0,0,1-7.36,1.09q-7.53,0-11.65-4.13T30.39,224c0-1.31.06-2.69.18-4.11H52.33Q52,223.5,52,227,52,230.3,52.32,233.47Zm-5.44-62.64H69.72c-.51.8-1,1.61-1.51,2.45A120.56,120.56,0,0,0,54.12,208.6c-.1.44-.18.87-.28,1.31H32.16c.21-.92.43-1.85.67-2.8A160.12,160.12,0,0,1,39.55,187Q42.78,179,46.88,170.83Zm9,55.53c.58-2.07,1.28-4.22,2.08-6.45H79.21c-.93,1.08-1.85,2.17-2.8,3.22q-3.68,4.08-7.36,7.46a64,64,0,0,1-7.29,5.82,27.86,27.86,0,0,1-7,3.53,7.16,7.16,0,0,1-.44-1.74,16.23,16.23,0,0,1-.12-2A37.49,37.49,0,0,1,55.88,226.36ZM62,209.91c1.43-3.22,3-6.52,4.74-9.92q3.67-7.2,7.76-14.17t8.36-13.14l1.32-1.85h24a56.29,56.29,0,0,1-2.88,8.72A85.93,85.93,0,0,1,101,188.3q-2.44,4.38-5.16,8.76-2.64,4.17-5.76,8.65c-1,1.41-2,2.8-3,4.2Zm29.93-49.08a51.55,51.55,0,0,1,6.54-6.5q3.41-2.75,5.72-2.74a3.23,3.23,0,0,1,1.92.7,10.42,10.42,0,0,1,2.41,4.32,19.69,19.69,0,0,1,.68,4.22ZM49.24,121.74h18.7q-3.12,3.24-6.06,6.57-3.15,3.57-6.2,7.46a17.86,17.86,0,0,1-3.52-2.49A11.5,11.5,0,0,1,49.68,130a10.61,10.61,0,0,1-1-4.58A12.22,12.22,0,0,1,49.24,121.74Zm72,0c.9.94,1.77,1.89,2.62,2.89a27.37,27.37,0,0,1-8,5.82,75.66,75.66,0,0,1-12,4.82,104,104,0,0,1-14.16,3.33,87,87,0,0,1-14.45,1.25c-1.65,0-3.27,0-4.84-.15a39.89,39.89,0,0,1-4.6-.55Q67.84,136,70.09,133c1.49-1.95,3-3.89,4.48-5.82l.88-.79c1.35-1.65,2.7-3.19,4-4.68Zm7.44,0c.3.2.6.38.9.6.67.46,1.33.93,2,1.39-.43.66-.85,1.26-1.25,1.79s-.81,1.1-1.24,1.69c-.53-.53-1-1-1.52-1.54s-1-1-1.52-1.54l.4-.4a7.83,7.83,0,0,0,.64-1.39c.08-.22.18-.4.26-.6ZM159.1,144.8q6.26,4.74,12.87,9.38a23.09,23.09,0,0,1-1.12,3.73,21.84,21.84,0,0,1-1.42,2.92h-1.64a53.26,53.26,0,0,1-8.66-5.16,123.54,123.54,0,0,1-9.69-7.86q-4.75-4.27-9.36-9.06t-8.92-9.35a1.92,1.92,0,0,1-.56-.5l-.49-.59c.43-.66.85-1.3,1.25-1.89a14.8,14.8,0,0,1,1.4-1.79q9.51,6.85,19.08,14.52c1.55,1.24,3.11,2.47,4.7,3.69A6.47,6.47,0,0,0,159.1,144.8Zm8.71-4.75a5.39,5.39,0,0,1,.8.4,4.39,4.39,0,0,1,1.92,1.49,7.82,7.82,0,0,1,1.12,2.19,10.93,10.93,0,0,1,.52,2.58c.08.93.12,1.83.12,2.69,0,.47,0,.91,0,1.34s-.06.88-.12,1.35q-4.74-3.45-9.34-6.94A6.69,6.69,0,0,0,167.81,140.05Zm3.24,20.78c.35-.74.69-1.48,1-2.23a21.75,21.75,0,0,0,1.12-3.43q3.29,2.29,6.53,4.53l1.7,1.13Zm-45.63,0a26.41,26.41,0,0,1-1.27-2.82,24.16,24.16,0,0,1-1.56-8.41,30.47,30.47,0,0,1,1.76-10.1,48,48,0,0,1,4.56-9.5,1.31,1.31,0,0,1,.48.4,6.08,6.08,0,0,0,.56.59l8.93,9.26q4.6,4.77,9.4,9.1a111,111,0,0,0,9.81,7.91,62.59,62.59,0,0,0,5.56,3.57Zm.23-39.09a7.22,7.22,0,0,1-.66.9l-.16.19-1.08-1.09ZM159,170.83A28.67,28.67,0,0,1,146,174a22.9,22.9,0,0,1-9.88-2.49c-.4-.21-.76-.44-1.14-.66Zm118.81,0c-1.5.85-3,1.68-4.61,2.45a76.61,76.61,0,0,1-15.41,5.47,71.74,71.74,0,0,1-17,2A77.78,77.78,0,0,1,222,178.35a89.65,89.65,0,0,1-19.59-7.52Zm-79.56-43.17a32.94,32.94,0,0,1,4.72,7.81,21,21,0,0,1,1.72,8.16,18,18,0,0,1-1,5.67,21.08,21.08,0,0,1-3,5.72,23,23,0,0,1-5,4.93c-.42.31-.86.6-1.31.88h-9.52c-1.26-.81-2.51-1.63-3.77-2.48q-3.88-2.58-7.65-5.27a3.56,3.56,0,0,0,.32-1.64c.06-.9.08-1.61.08-2.14a22.51,22.51,0,0,0-1.32-8.16,20.47,20.47,0,0,0-3.12-5.57,12.56,12.56,0,0,0-3.64-3.18,6.68,6.68,0,0,0-3-1,3.15,3.15,0,0,0-1,.16l-.34,0a6.7,6.7,0,0,0-6.5,6.88,5.85,5.85,0,0,0,0,.73l-2.32-1.83q-9.41-7.51-18.76-14.18c.44-.48.89-.94,1.34-1.39h57.09A42.67,42.67,0,0,1,198.27,127.66Zm-46.84-15.92a36.32,36.32,0,0,1,10.22-1.44,42.78,42.78,0,0,1,10.6,1.34l.36.1Zm-18.67,10.5a9.71,9.71,0,0,1-.95-.5h1.48Zm-16.59-10.5-2-1.14a77.54,77.54,0,0,0-13.37-6,16.45,16.45,0,0,1,2.32-1.2c.8-.33,1.58-.66,2.32-1a20.79,20.79,0,0,1,3.89-1,25.53,25.53,0,0,1,3.88-.29,20.15,20.15,0,0,1,5.16.64,12.09,12.09,0,0,1,4.36,2.14,11.41,11.41,0,0,1,3.16,4,13.89,13.89,0,0,1,1.19,3.83Zm-7.19,0H89.92a66.46,66.46,0,0,1,7.78-5.52A58.31,58.31,0,0,1,109,111.74Zm-28.65-1-1.31,1H57.19c.87-.65,1.79-1.29,2.77-1.89a44,44,0,0,1,7-3.48,46.36,46.36,0,0,1,7.52-2.24,36.3,36.3,0,0,1,7.36-.8c1.34,0,2.67.07,4,.2s2.66.34,4,.6A94.49,94.49,0,0,0,80.33,110.7ZM10,170.83H34.21q-1.26,2.73-2.42,5.48a124.87,124.87,0,0,0-6.2,18.81,78.09,78.09,0,0,0-2.17,14.79H10ZM990,321.65H10V269H319V259H10V219.91H23.86c.22,1.53.49,3,.85,4.51a32.49,32.49,0,0,0,4.12,9.9,21.32,21.32,0,0,0,7,6.91,19.34,19.34,0,0,0,10.21,2.59,30.84,30.84,0,0,0,7.84-1.09,18.47,18.47,0,0,0,6.52,8.11,16.66,16.66,0,0,0,9.17,2.53,18.74,18.74,0,0,0,4.28-.49,15.66,15.66,0,0,0,4-1.55,12.73,12.73,0,0,0,3.36-2.68,14.31,14.31,0,0,0,2.44-3.83l1.12-4,0-.26A7.52,7.52,0,0,0,85,239c0-3.8-2.69-6.87-6-6.87s-6,3.07-6,6.87,2.59,6.76,5.82,6.87c-.78.76-1.57,1.48-2.37,2.14a14.18,14.18,0,0,1-9.08,3.68,12,12,0,0,1-6.61-2.24,15,15,0,0,1-5.4-7.11,35.87,35.87,0,0,0,10.57-6.52A114.73,114.73,0,0,0,77.05,225c1.48-1.64,2.93-3.34,4.37-5.06H319v-10H89.17q4.17-5.73,7.57-11,2.81-4.68,5.32-9.25a88.86,88.86,0,0,0,4.4-9.16,59.65,59.65,0,0,0,3-9.2c0-.17.06-.34.1-.51h22a27.06,27.06,0,0,0,4.38,2.6,24.12,24.12,0,0,0,10.52,2.24,25.1,25.1,0,0,0,6.6-.9,33.12,33.12,0,0,0,6.37-2.44,27.84,27.84,0,0,0,2.6-1.5h36.52c1.27.66,2.53,1.3,3.78,1.9a111.21,111.21,0,0,0,13,5.42A84.15,84.15,0,0,0,228,181.44a71.84,71.84,0,0,0,12.52,1.09,74.23,74.23,0,0,0,17.49-2,77.66,77.66,0,0,0,15.81-5.62,75.63,75.63,0,0,0,7.24-4h38v-10H293.32a58.69,58.69,0,0,0,4.47-5.21,48.64,48.64,0,0,0,6.8-12.19A36.4,36.4,0,0,0,307,130.5a34.4,34.4,0,0,0-1.14-8.76H319v-10H301.08a22,22,0,0,0-8-5.92A28.18,28.18,0,0,0,282,103.73a39.77,39.77,0,0,0-8.72,1,44.74,44.74,0,0,0-8.77,2.93,50.65,50.65,0,0,0-7.27,4.08h-57.7c-.36-.3-.72-.6-1.1-.89A35.13,35.13,0,0,0,186.9,105a50.17,50.17,0,0,0-34.58,2.43,55.4,55.4,0,0,0-7.62,4.28H128.44a16.09,16.09,0,0,0-2.45-6.91,15.05,15.05,0,0,0-6.28-5.68,3,3,0,0,0-1.32-.74,22.55,22.55,0,0,0-2.32-.65,23.38,23.38,0,0,0-2.76-.45,24.85,24.85,0,0,0-2.56-.14A30.19,30.19,0,0,0,102,98.51a53.12,53.12,0,0,0-9.12,3.73q-2.73-.49-5.44-.8a49.75,49.75,0,0,0-5.45-.29,40.22,40.22,0,0,0-7.68.79,50.26,50.26,0,0,0-8.08,2.29,45.63,45.63,0,0,0-7.65,3.68,34.17,34.17,0,0,0-5.21,3.83H10V72.66H319v-10H10V10H990Z" transform="translate(0 0)"/></svg>