<svg id="Layer_1" data-name="Layer 1" xmlns="http://www.w3.org/2000/svg" viewBox="0 0 1000 1000"><defs><style>.cls-1{fill:#002639;}.cls-2{fill:none;stroke:#87d1ff;stroke-miterlimit:10;stroke-width:5px;}.cls-3{fill:#fff;}</style></defs><title>new-song</title><rect class="cls-1" width="1000" height="1000"/><path class="cls-2" d="M87.11,252.5"/><path class="cls-3" d="M167.26,627.39c0-23.1,10.65-38.25,33.75-38.25,13.65,0,26.55,5.86,26.55,12.9a5.25,5.25,0,0,1-5.4,5.25c-2.1,0-3-1-5.4-2.55a24.75,24.75,0,0,0-15-4.65c-16.95,0-22.5,10.5-22.5,27.3v32.1c0,16.8,5.55,27.3,22.5,27.3a24.75,24.75,0,0,0,15-4.65c2.55-1.5,3.3-2.55,5.4-2.55a5.25,5.25,0,0,1,5.4,5.25c0,7-12.9,12.9-26.55,12.9-23.1,0-33.75-15.15-33.75-38.25Z"/><path class="cls-3" d="M331.21,649.14l24,39.45A8.33,8.33,0,0,1,356,692c0,3.15-4,5.7-6.45,5.7a5.61,5.61,0,0,1-4.95-2.85l-26.55-45H300.76v41.7a6.41,6.41,0,0,1-6.15,6.3,6.16,6.16,0,0,1-5.85-6.3V597.84a7.14,7.14,0,0,1,6.9-7.2h26.1c24.75,0,32.7,15.15,32.7,30C354.46,636.54,345.46,646.29,331.21,649.14Zm-10-46.8h-20.4v36h21.3c13.2,0,20.4-6.15,20.4-17.7C342.46,611.79,338.56,602.34,321.16,602.34Z"/><path class="cls-3" d="M469.21,696.39H429.46c-4.95,0-9.45-1.65-9.45-7V597.69a7.24,7.24,0,0,1,7.05-7.05h40.65a6,6,0,0,1,6,6,5.77,5.77,0,0,1-6,5.7H432v35.1h32.85a6,6,0,0,1,5.85,5.85,5.76,5.76,0,0,1-5.85,5.85H432v35.55h37.2c3.15,0,6,2.55,6,5.55A6.06,6.06,0,0,1,469.21,696.39Z"/><path class="cls-3" d="M540.9,693.39a6.65,6.65,0,0,1-5.69,4.5,6,6,0,0,1-6.3-6,9.64,9.64,0,0,1,.3-2.25l29.24-92.55c1.35-4.5,3.45-8,7.8-8s6.45,3.31,8,8l29.25,92.55a10.21,10.21,0,0,1,.3,2.25c0,3.6-2.7,6-6.3,6a6.51,6.51,0,0,1-5.85-4.5l-6.45-20.85H547.2Zm9.9-32.55h30.9L566.25,610Z"/><path class="cls-3" d="M682.65,602.34h-20.4a5.89,5.89,0,0,1-6-5.84,6.43,6.43,0,0,1,6-5.86h52.8a5.86,5.86,0,1,1,0,11.7h-20.4v89.55a6,6,0,0,1-12,0Z"/><path class="cls-3" d="M830.1,696.39H790.35c-5,0-9.45-1.65-9.45-7V597.69a7.24,7.24,0,0,1,7.05-7.05H828.6a6,6,0,0,1,6,6,5.77,5.77,0,0,1-6,5.7H792.9v35.1h32.85a6,6,0,0,1,5.85,5.85,5.76,5.76,0,0,1-5.85,5.85H792.9v35.55h37.2c3.15,0,6,2.55,6,5.55A6.05,6.05,0,0,1,830.1,696.39Z"/><path class="cls-3" d="M315.63,817.34V792.83L297.83,755a5.85,5.85,0,0,1-.4-1.9,4.26,4.26,0,0,1,4.1-4.1,3.47,3.47,0,0,1,3.1,1.6l15.1,32.9,15.1-32.9a3.47,3.47,0,0,1,3.1-1.6,4.26,4.26,0,0,1,4.1,4.1,5.85,5.85,0,0,1-.4,1.9l-17.8,38v24.31a4.2,4.2,0,0,1-4.1,4.2A4.14,4.14,0,0,1,315.63,817.34Z"/><path class="cls-3" d="M342.73,803.54V786.83c0-10,6.5-17.8,18.7-17.8s18.7,7.8,18.7,17.8v16.71c0,10-6.5,17.8-18.7,17.8S342.73,813.54,342.73,803.54Zm29.6,0V786.73c0-6.5-3.7-10.5-10.9-10.5s-10.9,4-10.9,10.5v16.81c0,6.6,3.7,10.6,10.9,10.6S372.33,810.14,372.33,803.54Z"/><path class="cls-3" d="M419.83,773.23a3.9,3.9,0,0,1,7.8,0v35c0,5.5,1,5.5,1.8,7a4.21,4.21,0,0,1,.7,2,3.59,3.59,0,0,1-3.7,3.5c-1.9,0-3.2-1.2-4.3-3a29.11,29.11,0,0,1-14.2,3.6c-10.6,0-15.9-7.6-15.9-18.91v-29.2a3.9,3.9,0,0,1,7.8,0v29.2c0,7.61,3.2,11.91,9.2,11.91a20.54,20.54,0,0,0,11-3.3c-.1-1-.2-2-.2-2.8Z"/><path class="cls-3" d="M451,817.44a3.91,3.91,0,0,1-7.81,0V783.63c0-3.3-.39-5.2-1.59-7a3.17,3.17,0,0,1-.71-2,3.51,3.51,0,0,1,3.61-3.5,5,5,0,0,1,4,2.7,28.66,28.66,0,0,1,13.7-4.3c4,0,5.2,1.7,5.2,3.8a3.75,3.75,0,0,1-3.9,4c-4.1-.1-7.7-.1-12.7,3.6.1,1,.2,1.9.2,2.7Z"/><path class="cls-3" d="M529.52,791.33c-9.5-5-26.1-5.1-26.1-22.8,0-12.1,7.8-19.5,20.2-19.5,5,0,17.11,1.2,17.11,6.8a3.79,3.79,0,0,1-4,3.8c-3.09,0-5.7-2.8-12.5-2.8-6.4,0-12.5,2.5-12.5,11.2,0,6.6,3.5,8.8,5.8,10,9.6,5,26.11,5.2,26.11,22.71,0,13.2-9.3,20.8-21.91,20.8-6.4,0-18.4-2-18.4-7.4a3.85,3.85,0,0,1,3.6-3.9c2.8,0,7.1,3.5,14.9,3.5,8.9,0,13.4-4.5,13.4-12.31C535.22,794.93,532,792.63,529.52,791.33Z"/><path class="cls-3" d="M552.42,803.54V786.83c0-10,6.5-17.8,18.7-17.8s18.7,7.8,18.7,17.8v16.71c0,10-6.5,17.8-18.7,17.8S552.42,813.54,552.42,803.54Zm29.6,0V786.73c0-6.5-3.7-10.5-10.9-10.5s-10.9,4-10.9,10.5v16.81c0,6.6,3.7,10.6,10.9,10.6S582,810.14,582,803.54Z"/><path class="cls-3" d="M609.82,817.44a3.9,3.9,0,0,1-7.8,0v-34c0-5.5-.9-5.5-1.8-7a3.82,3.82,0,0,1-.7-2,3.53,3.53,0,0,1,3.7-3.5c1.8,0,3.1,1.2,4.2,2.9a24.9,24.9,0,0,1,14.3-4.5c10.6,0,15.9,7.6,15.9,18.9v29.21a3.9,3.9,0,0,1-7.8,0V788.23c0-7.6-3.2-11.9-9.2-11.9a18.47,18.47,0,0,0-11.1,4.2,16.78,16.78,0,0,1,.3,2.9Z"/><path class="cls-3" d="M679.32,772.53c2.2-4.1,5.8-5.8,8-5.8a3.53,3.53,0,0,1,3.7,3.5,2.9,2.9,0,0,1-.7,2c-3.8,3.7-5.4,4.8-5.4,9.7v6.2c0,10.2-6.1,18-18.1,18a21.26,21.26,0,0,1-7.9-1.3,10.2,10.2,0,0,0-1.2,4.61c0,3.5,3.2,4.4,5.4,4.4h4.2c11.4,0,20,4.7,20,14.7s-8.7,16.3-20.5,16.3c-11.3,0-19.2-5.7-19.2-15.4a16,16,0,0,1,5.3-12,11,11,0,0,1-3-7.7,10.81,10.81,0,0,1,3.8-8.2c-3.5-3.31-5.4-8.21-5.4-14.11,0-10.4,5.9-18.3,17.9-18.3A26.63,26.63,0,0,1,679.32,772.53Zm-20.5,48a9.64,9.64,0,0,0-3.4,7.8c0,6,3.9,9.3,11.6,9.3,7.2,0,12.5-2.9,12.5-8.9,0-5.3-4-7.7-12-7.7h-4.2A20,20,0,0,1,658.82,820.54Zm18.5-41.41a19,19,0,0,0-10.1-3c-7.4,0-11.1,4.1-11.1,11.5,0,6.8,3.2,11.3,10.7,11.3,7.1,0,10.3-4,10.3-10.6V782A26.42,26.42,0,0,1,677.32,779.13Z"/><path class="cls-3" d="M653.76,431.21,521.93,507.33a7.69,7.69,0,0,1-11.54-6.67V259.78a7.67,7.67,0,0,1,3.85-6.66L646.07,177a7.69,7.69,0,0,1,11.54,6.66V424.55A7.69,7.69,0,0,1,653.76,431.21Z"/><path class="cls-3" d="M345.92,431,479,507.87a7.07,7.07,0,0,0,10.6-6.12V259.42a7.08,7.08,0,0,0-3.53-6.12L353,176.46a7.07,7.07,0,0,0-10.6,6.12V424.91A7,7,0,0,0,345.92,431Z"/></svg>