<svg id="Layer_1" data-name="Layer 1" xmlns="http://www.w3.org/2000/svg" viewBox="0 0 1000 1000"><defs><style>.cls-1{fill:#002639;}.cls-2{fill:#fff;}.cls-3{fill:none;stroke:#87d1ff;stroke-miterlimit:10;stroke-width:5px;}.cls-4{fill:#87d1ff;}.cls-5{fill:#87d169;}.cls-6{fill:#ff7335;}</style></defs><title>song-library</title><rect class="cls-1" width="1000" height="1000"/><rect class="cls-2" x="500.89" y="-120.06" width="5" height="576.13" transform="translate(304.26 659.91) rotate(-86.42)"/><rect class="cls-2" x="227.1" y="302.5" width="561.57" height="5" transform="translate(-21.39 38.84) rotate(-4.29)"/><rect class="cls-2" x="503.89" y="160.73" width="5" height="554.54" transform="matrix(0.1, -1, 1, 0.1, 22, 900.21)"/><path class="cls-3" d="M87,211.5"/><path class="cls-2" d="M237.05,150.08,240,83.92a7.4,7.4,0,0,1,7.71-7.06l15.21.67a7.39,7.39,0,0,1,7.05,7.71L267,151.39"/><path class="cls-4" d="M269.52,151.5l-5-.22,2.9-66.15a4.89,4.89,0,0,0-4.67-5.1l-15.21-.67a4.9,4.9,0,0,0-5.1,4.67l-2.9,66.16-5-.22,2.9-66.16a9.9,9.9,0,0,1,10.31-9.44L263,75a9.91,9.91,0,0,1,9.45,10.32Z"/><path class="cls-2" d="M269.49,152.33l3.21-73.15c.2-4.5,3.66-8,7.74-7.83l15.21.66c4.07.18,7.22,4,7,8.49l-3.2,73.14"/><path class="cls-4" d="M302,153.75l-5-.22,3.2-73.14a6.05,6.05,0,0,0-1.33-4.16,4.51,4.51,0,0,0-3.3-1.72l-15.21-.67a4.56,4.56,0,0,0-3.44,1.42,6.11,6.11,0,0,0-1.69,4L272,152.43l-5-.21,3.2-73.14a11,11,0,0,1,3.14-7.33,9.44,9.44,0,0,1,7.21-2.9l15.2.66A9.49,9.49,0,0,1,302.69,73a11.09,11.09,0,0,1,2.48,7.57Z"/><path class="cls-2" d="M302.31,154.07l2.9-66.15a7.39,7.39,0,0,1,7.7-7.06l15.21.66a7.39,7.39,0,0,1,7.06,7.71l-2.9,66.16"/><path class="cls-4" d="M334.78,155.5l-5-.22,2.9-66.16A4.9,4.9,0,0,0,328,84l-15.21-.67A4.92,4.92,0,0,0,307.7,88l-2.89,66.15-5-.22,2.9-66.15A9.9,9.9,0,0,1,313,78.36l15.21.67a9.89,9.89,0,0,1,9.45,10.31Z"/><path class="cls-2" d="M592.7,443.55l-66-5.95a7.38,7.38,0,0,1-6.7-8l1.37-15.16a7.39,7.39,0,0,1,8-6.7l65.95,5.95"/><path class="cls-5" d="M595,446.26l-68.44-6.17a9.89,9.89,0,0,1-9-10.74l1.37-15.16a9.89,9.89,0,0,1,10.74-9l68.44,6.18-.45,5-68.44-6.18a4.89,4.89,0,0,0-5.31,4.43l-1.37,15.16a4.89,4.89,0,0,0,4.43,5.31l68.44,6.18Z"/><path class="cls-2" d="M588.7,410.55l-66-5.95a7.38,7.38,0,0,1-6.7-8l1.37-15.16a7.39,7.39,0,0,1,8-6.7l65.95,5.95"/><path class="cls-6" d="M591,413.26l-68.44-6.17a9.89,9.89,0,0,1-9-10.74l1.37-15.16a9.89,9.89,0,0,1,10.74-9l68.44,6.18-.45,5-68.44-6.18a4.89,4.89,0,0,0-5.31,4.43l-1.37,15.16a4.89,4.89,0,0,0,4.43,5.31l68.44,6.18Z"/><path class="cls-2" d="M599.7,378.55l-66-5.95a7.38,7.38,0,0,1-6.7-8l1.37-15.16a7.39,7.39,0,0,1,8-6.7l65.95,5.95"/><path class="cls-5" d="M602,381.26l-68.44-6.17a9.89,9.89,0,0,1-9-10.74l1.37-15.16a9.89,9.89,0,0,1,10.74-9l68.44,6.18-.45,5-68.44-6.18a4.89,4.89,0,0,0-5.31,4.43l-1.37,15.16a4.89,4.89,0,0,0,4.43,5.31l68.44,6.18Z"/><path class="cls-2" d="M380.83,63.38l66.08,4.21a7.39,7.39,0,0,1,6.91,7.85l-1,15.18A7.39,7.39,0,0,1,445,97.53l-66.09-4.21"/><path class="cls-5" d="M445.49,100.05l-.64,0-68.58-4.37.32-5L445.17,95a4.89,4.89,0,0,0,5.19-4.57l1-15.19a4.88,4.88,0,0,0-4.57-5.19l-68.58-4.37.32-5,68.58,4.37a9.87,9.87,0,0,1,9.24,10.49l-1,15.19a9.9,9.9,0,0,1-9.86,9.27Z"/><path class="cls-2" d="M385.7,96.27l66.08,4.2a7.4,7.4,0,0,1,6.91,7.85l-1,15.19a7.39,7.39,0,0,1-7.84,6.9l-66.09-4.21"/><path class="cls-5" d="M450.36,132.93l-.64,0-68.58-4.37.31-5L450,127.92a4.91,4.91,0,0,0,5.2-4.57l1-15.19a4.89,4.89,0,0,0-4.57-5.19L383,98.6l.32-5L451.94,98a9.87,9.87,0,0,1,9.24,10.5l-1,15.19a9.91,9.91,0,0,1-9.86,9.26Z"/><path class="cls-2" d="M375.54,128.54l66.09,4.21a7.39,7.39,0,0,1,6.9,7.85l-1,15.19a7.39,7.39,0,0,1-7.85,6.9l-66.08-4.21"/><path class="cls-5" d="M440.2,165.21l-.64,0L371,160.82l.32-5,68.58,4.37a4.9,4.9,0,0,0,5.19-4.57l1-15.19a4.89,4.89,0,0,0-4.57-5.19l-68.58-4.37.32-5,68.58,4.37a9.89,9.89,0,0,1,9.24,10.5l-1,15.18A9.9,9.9,0,0,1,440.2,165.21Z"/><path class="cls-2" d="M306.94,254.36l65.95-6a7.39,7.39,0,0,1,8,6.69l1.37,15.16a7.39,7.39,0,0,1-6.69,8l-65.95,6"/><path class="cls-5" d="M307.37,287l-.45-5,68.44-6.19a4.89,4.89,0,0,0,4.43-5.31l-1.37-15.16a4.89,4.89,0,0,0-5.31-4.43l-68.44,6.19-.45-5,68.44-6.19a9.89,9.89,0,0,1,10.74,9L384.77,270a9.9,9.9,0,0,1-9,10.74Z"/><path class="cls-2" d="M301.85,287.81l65.95-6a7.39,7.39,0,0,1,8,6.7l1.37,15.16a7.39,7.39,0,0,1-6.69,8l-65.95,6"/><path class="cls-5" d="M302.28,320.41l-.45-5,68.44-6.19a4.88,4.88,0,0,0,4.43-5.31l-1.37-15.16a4.9,4.9,0,0,0-5.31-4.43l-68.44,6.19-.45-5,68.44-6.19a9.91,9.91,0,0,1,10.74,9l1.37,15.16a9.9,9.9,0,0,1-9,10.74Z"/><path class="cls-2" d="M623.94,231.36l65.95-6a7.39,7.39,0,0,1,8,6.69l1.37,15.16a7.39,7.39,0,0,1-6.69,8l-66,6"/><path class="cls-5" d="M624.37,264l-.45-5,68.44-6.19a4.88,4.88,0,0,0,4.43-5.31l-1.37-15.16a4.88,4.88,0,0,0-5.31-4.43l-68.44,6.19-.45-5,68.44-6.19a9.89,9.89,0,0,1,10.74,9L701.77,247a9.89,9.89,0,0,1-9,10.74Z"/><path class="cls-2" d="M618.85,264.81l65.95-6a7.39,7.39,0,0,1,8,6.7l1.37,15.16a7.39,7.39,0,0,1-6.69,8l-66,6"/><path class="cls-5" d="M619.28,297.41l-.45-5,68.44-6.19a4.88,4.88,0,0,0,4.43-5.31l-1.37-15.16a4.91,4.91,0,0,0-5.31-4.43l-68.44,6.19-.45-5,68.44-6.19a9.9,9.9,0,0,1,10.74,9l1.37,15.16a9.87,9.87,0,0,1-9,10.74Z"/><path class="cls-2" d="M468.53,165.56l-6.86-65.87a7.39,7.39,0,0,1,6.59-8.11L483.39,90a7.4,7.4,0,0,1,8.12,6.59l6.86,65.86"/><path class="cls-6" d="M466.3,168.3,459.19,100A9.9,9.9,0,0,1,468,89.09l15.14-1.57A9.9,9.9,0,0,1,494,96.33l7.11,68.35-5,.52L489,96.85a4.89,4.89,0,0,0-5.37-4.36l-15.13,1.57a4.89,4.89,0,0,0-4.36,5.37l7.12,68.35Z"/><path class="cls-2" d="M502.05,170.19l-6.86-65.86a7.4,7.4,0,0,1,6.59-8.12l15.13-1.57a7.38,7.38,0,0,1,8.12,6.58l6.86,65.86"/><path class="cls-6" d="M499.82,172.94l-7.12-68.35a9.89,9.89,0,0,1,8.82-10.86l15.14-1.58A9.9,9.9,0,0,1,527.52,101l7.11,68.35-5,.52-7.12-68.35a4.89,4.89,0,0,0-5.37-4.36L502,98.7a4.87,4.87,0,0,0-4.36,5.37l7.11,68.35Z"/><path class="cls-2" d="M412.83,330.38l66.08,4.21a7.39,7.39,0,0,1,6.91,7.85l-1,15.18a7.39,7.39,0,0,1-7.84,6.91l-66.09-4.21"/><path class="cls-6" d="M477.49,367.05l-.64,0-68.58-4.37.32-5L477.17,362a4.89,4.89,0,0,0,5.19-4.57l1-15.19a4.88,4.88,0,0,0-4.57-5.19l-68.58-4.37.32-5,68.58,4.37a9.87,9.87,0,0,1,9.24,10.49l-1,15.19a9.9,9.9,0,0,1-9.86,9.27Z"/><path class="cls-2" d="M417.7,363.27l66.08,4.2a7.4,7.4,0,0,1,6.91,7.85l-1,15.19a7.39,7.39,0,0,1-7.84,6.9l-66.09-4.21"/><path class="cls-5" d="M482.36,399.93l-.64,0-68.58-4.37.31-5L482,394.92a4.91,4.91,0,0,0,5.2-4.57l1-15.19a4.89,4.89,0,0,0-4.57-5.19L415,365.6l.32-5L483.94,365a9.87,9.87,0,0,1,9.24,10.5l-1,15.19a9.91,9.91,0,0,1-9.86,9.26Z"/><path class="cls-2" d="M407.54,395.54l66.09,4.21a7.39,7.39,0,0,1,6.9,7.85l-1,15.19a7.39,7.39,0,0,1-7.85,6.9l-66.08-4.21"/><path class="cls-5" d="M472.2,432.21l-.64,0L403,427.82l.32-5,68.58,4.37a4.9,4.9,0,0,0,5.19-4.57l1-15.19a4.89,4.89,0,0,0-4.57-5.19l-68.58-4.37.32-5,68.58,4.37a9.89,9.89,0,0,1,9.24,10.5l-1,15.18A9.9,9.9,0,0,1,472.2,432.21Z"/><path class="cls-2" d="M666.94,177.57l4.9-66a7.38,7.38,0,0,1,7.92-6.82l15.18,1.12a7.39,7.39,0,0,1,6.82,7.92l-4.9,66"/><path class="cls-5" d="M699.35,180l-5-.37,4.91-66a4.9,4.9,0,0,0-4.52-5.23l-15.18-1.13a4.9,4.9,0,0,0-5.24,4.51l-4.9,66-5-.37,4.91-66a9.88,9.88,0,0,1,10.59-9.13l15.18,1.13a9.89,9.89,0,0,1,9.13,10.59Z"/><path class="cls-2" d="M699.42,179.07l5.31-71.46c.33-4.4,3.89-7.73,8-7.43l15.18,1.13c4.07.3,7.1,4.12,6.78,8.52l-5.31,71.47"/><path class="cls-5" d="M731.83,181.48l-5-.37,5.3-71.46a5.8,5.8,0,0,0-1.2-4.06,4.61,4.61,0,0,0-3.27-1.79l-15.18-1.12c-2.68-.2-5,2.09-5.28,5.12l-5.3,71.46-5-.37,5.31-71.46c.42-5.78,5.2-10.14,10.64-9.74l15.17,1.13a9.51,9.51,0,0,1,6.81,3.66,10.76,10.76,0,0,1,2.28,7.54Z"/><path class="cls-2" d="M732,183.54l4.9-66a7.41,7.41,0,0,1,7.92-6.83L760,111.8a7.39,7.39,0,0,1,6.82,7.92l-4.9,66"/><path class="cls-5" d="M764.45,185.94l-5-.37,4.91-66a4.91,4.91,0,0,0-4.52-5.24l-15.18-1.12a4.88,4.88,0,0,0-5.23,4.51l-4.91,66-5-.37,4.9-66a9.9,9.9,0,0,1,10.6-9.13l15.17,1.13a9.89,9.89,0,0,1,9.13,10.59Z"/><path class="cls-2" d="M588.77,214.08l7.41,71.57c.46,4.42-2.46,8.33-6.52,8.75L574.52,296c-4.06.42-7.72-2.81-8.18-7.23l-7.41-71.57"/><path class="cls-6" d="M573.81,298.51a10.33,10.33,0,0,1-10-9.51l-7.66-74.06,5-.51,7.67,74.06c.31,3,2.75,5.27,5.43,5l15.14-1.56a4.58,4.58,0,0,0,3.21-1.89,5.86,5.86,0,0,0,1.08-4.12L586,211.85l5-.51,7.67,74.06a10.9,10.9,0,0,1-2,7.62,9.56,9.56,0,0,1-6.71,3.87l-15.13,1.57C574.45,298.49,574.13,298.51,573.81,298.51Z"/><path class="cls-2" d="M557.15,224.34,564,290.21a7.39,7.39,0,0,1-6.59,8.11l-15.14,1.57a7.39,7.39,0,0,1-8.11-6.59l-6.82-65.87"/><path class="cls-6" d="M541.46,302.43a9.9,9.9,0,0,1-9.82-8.88l-7.07-68.35,5-.51L536.62,293A4.89,4.89,0,0,0,542,297.4l15.14-1.57a4.87,4.87,0,0,0,4.36-5.36l-7.07-68.36,5-.51L566.46,290a9.9,9.9,0,0,1-8.82,10.86l-15.14,1.56A9.07,9.07,0,0,1,541.46,302.43Z"/><path class="cls-2" d="M523.64,219.69,531,290.83c.45,4.38-2.47,8.28-6.53,8.7l-15.14,1.56c-4.06.42-7.72-2.79-8.17-7.18l-7.37-71.14"/><path class="cls-5" d="M508.62,303.63a10.28,10.28,0,0,1-9.95-9.46l-7.62-73.63,5-.51,7.63,73.63c.31,3,2.76,5.23,5.42,4.95L524.21,297c2.69-.28,4.61-3,4.3-6l-7.62-73.62,5-.52,7.63,73.63c.59,5.75-3.34,10.88-8.76,11.44l-15.14,1.57C509.26,303.61,508.94,303.63,508.62,303.63Z"/><path class="cls-2" d="M500.14,301.51l-66.08,4.28a7.4,7.4,0,0,1-7.86-6.9l-1-15.19a7.39,7.39,0,0,1,6.9-7.85l66.08-4.27"/><path class="cls-4" d="M433.56,308.3a9.89,9.89,0,0,1-9.85-9.25l-1-15.19A9.9,9.9,0,0,1,432,273.35l68.57-4.43.33,5-68.58,4.43a4.92,4.92,0,0,0-3.36,1.66,4.83,4.83,0,0,0-1.2,3.54l1,15.19a4.87,4.87,0,0,0,5.19,4.56l68.58-4.43.32,5-68.57,4.43C434,308.3,433.78,308.3,433.56,308.3Z"/><path class="cls-2" d="M491.11,269.52,425,273.8a7.4,7.4,0,0,1-7.85-6.9l-1-15.19a7.39,7.39,0,0,1,6.9-7.85l66.08-4.28"/><path class="cls-4" d="M424.54,276.31a9.9,9.9,0,0,1-9.86-9.25l-1-15.19a9.9,9.9,0,0,1,9.23-10.51l68.57-4.43.33,5-68.58,4.43a4.91,4.91,0,0,0-4.57,5.2l1,15.19a4.89,4.89,0,0,0,5.19,4.56l68.58-4.43.32,5-68.57,4.43C425,276.31,424.75,276.31,424.54,276.31Z"/><path class="cls-2" d="M497.05,236.21,431,240.48a7.37,7.37,0,0,1-7.85-6.89l-1-15.19a7.39,7.39,0,0,1,6.9-7.85l66.08-4.28"/><path class="cls-4" d="M430.48,243a9.89,9.89,0,0,1-9.86-9.25l-1-15.19a9.91,9.91,0,0,1,9.23-10.51l68.58-4.43.32,5L429.19,213a4.9,4.9,0,0,0-4.56,5.2l1,15.19a4.89,4.89,0,0,0,5.2,4.56l68.57-4.44.33,5L431.13,243Z"/><path class="cls-2" d="M616.32,447.73l5.89-67.6a7.5,7.5,0,0,1,8-6.91l15.17,1.33a7.48,7.48,0,0,1,6.7,8.18l-5.89,67.61"/><path class="cls-6" d="M648.7,450.55l-5-.43,5.89-67.6a5.14,5.14,0,0,0-1.13-3.73,4.77,4.77,0,0,0-3.3-1.75L630,375.72a5,5,0,0,0-5.32,4.62L618.81,448l-5-.44,5.89-67.6a10,10,0,0,1,10.73-9.18l15.16,1.33a9.67,9.67,0,0,1,6.73,3.57,10.07,10.07,0,0,1,2.25,7.32Z"/><path class="cls-2" d="M648.77,449.77l6.38-73.13c.39-4.5,4-7.87,8.07-7.51l15.16,1.32c4.07.35,7,4.29,6.65,8.8l-6.37,73.12"/><path class="cls-4" d="M681.15,452.59l-5-.43L682.54,379c.28-3.12-1.69-5.86-4.37-6.09L663,371.62c-2.69-.23-5.09,2.12-5.36,5.24L651.26,450l-5-.44,6.38-73.12c.51-5.88,5.36-10.26,10.78-9.8L678.6,368c5.43.47,9.44,5.63,8.92,11.51Z"/><path class="cls-2" d="M681.5,452.72l5.75-66a7.39,7.39,0,0,1,8-6.72l15.17,1.32a7.4,7.4,0,0,1,6.72,8l-5.75,66"/><path class="cls-4" d="M713.88,455.54l-5-.43,5.75-66a4.9,4.9,0,0,0-4.45-5.3L695,382.52a4.9,4.9,0,0,0-5.3,4.45l-5.75,66-5-.44,5.75-66a9.89,9.89,0,0,1,10.71-9l15.16,1.32a9.89,9.89,0,0,1,9,10.71Z"/><path class="cls-2" d="M314.85,611.59c-14.25-7.5-39.15-7.65-39.15-34.2,0-18.15,11.7-29.25,30.3-29.25,7.5,0,25.65,1.81,25.65,10.2a5.68,5.68,0,0,1-6,5.7c-4.65,0-8.55-4.2-18.75-4.2-9.6,0-18.75,3.75-18.75,16.8,0,9.9,5.25,13.2,8.7,15,14.4,7.5,39.15,7.8,39.15,34.05,0,19.8-13.95,31.2-32.85,31.2-9.6,0-27.6-3-27.6-11.1,0-3,2.4-5.85,5.4-5.85,4.2,0,10.65,5.25,22.35,5.25,13.35,0,20.1-6.75,20.1-18.45C323.4,617,318.6,613.54,314.85,611.59Z"/><path class="cls-2" d="M394.05,618.49v-32.1c0-20.85,9.75-38.25,34.5-38.25s34.5,17.4,34.5,38.25v32.1c0,21.3-11.55,38.4-34.5,38.4S394.05,639.79,394.05,618.49Zm12-32.1v32.1c0,15.75,7.05,26.7,22.5,26.7s22.5-11,22.5-26.7v-32.1c0-15.9-6-26.55-22.5-26.55S406.05,570.49,406.05,586.39Z"/><path class="cls-2" d="M581.09,653.44l-43.19-80v77.25a6.28,6.28,0,0,1-6.15,6.15,6,6,0,0,1-5.85-6.15v-96a6.36,6.36,0,0,1,6.45-6.61,7.19,7.19,0,0,1,6.3,3.61l43.19,79.79V554.29a6.28,6.28,0,0,1,6.15-6.15,6,6,0,0,1,5.85,6.15v96a6.47,6.47,0,0,1-6.6,6.6A7.31,7.31,0,0,1,581.09,653.44Z"/><path class="cls-2" d="M668.69,618.49c0,16.8,5.55,27.3,22.5,27.3a26.42,26.42,0,0,0,16.95-5.55V608H693.59a5.7,5.7,0,0,1,0-11.4h17.85c4.8,0,8.55,2.1,8.55,6.9v35.85c0,12.15-16.2,17.4-29.55,17.4-23.1,0-33.75-15.15-33.75-38.25v-32.1c0-23.1,10.65-38.25,33.75-38.25C704.09,548.14,717,554,717,561a5.25,5.25,0,0,1-5.4,5.25c-2.1,0-3-1-5.4-2.55a24.75,24.75,0,0,0-15-4.65c-17,0-22.5,10.5-22.5,27.3Z"/><path class="cls-2" d="M395.82,779.54h-28.2a4.55,4.55,0,0,1-4.5-4.5V712a4,4,0,0,1,8,0v59.81h24.7a3.86,3.86,0,0,1,3.8,3.8A3.82,3.82,0,0,1,395.82,779.54Z"/><path class="cls-2" d="M412.62,717.53a4.8,4.8,0,0,1-4.8-4.8,4.8,4.8,0,1,1,9.6,0A4.8,4.8,0,0,1,412.62,717.53Zm0,62.81a3.84,3.84,0,0,1-3.9-3.9V732.33a3.9,3.9,0,1,1,7.8,0v44.11A3.84,3.84,0,0,1,412.62,780.34Z"/><path class="cls-2" d="M432.32,710.83a3.9,3.9,0,0,1,7.8,0v21.4a22.14,22.14,0,0,1,13.3-4.1c11.4,0,15.5,6.8,15.5,15.6v18.81c0,10-6.1,17.8-18.3,17.8-11.6,0-18.3-7-18.3-15.8Zm7.8,53.71c0,5.4,4,8.6,10.5,8.6,7.2,0,10.5-4,10.5-10.6V743.73c0-5.5-2.9-8.8-9.6-8.8a14.55,14.55,0,0,0-11.4,5Z"/><path class="cls-2" d="M488.92,776.44a3.91,3.91,0,0,1-7.81,0V742.63c0-3.3-.39-5.2-1.59-7a3.17,3.17,0,0,1-.71-2,3.51,3.51,0,0,1,3.61-3.5,5,5,0,0,1,4,2.7,28.66,28.66,0,0,1,13.7-4.3c4,0,5.2,1.7,5.2,3.8a3.75,3.75,0,0,1-3.9,4c-4.1-.1-7.7-.1-12.7,3.6.1,1,.2,1.9.2,2.7Z"/><path class="cls-2" d="M538.62,745.73c0-7.3-3.5-10.7-10.7-10.7a14,14,0,0,0-7.6,2.1,7.22,7.22,0,0,1-2.6.8c-1.9,0-2.7-1.8-2.8-3.3-.4-4.6,7.1-6.5,14-6.5,12.5,0,17.5,7,17.5,20.2v22q0,3,1.8,3c.3,0,.4-.1.8-.1,1.9,0,2.9,1.7,2.9,3.4,0,2.5-2.3,3.4-4.5,3.4a8.24,8.24,0,0,1-7.5-5,19.44,19.44,0,0,1-13.7,5.3c-10.3,0-15.3-6.1-15.3-15.1v-.41c0-9.8,5.8-14.8,17.6-14.8a36.25,36.25,0,0,1,10.1,1.4Zm-20,19.21v.39c0,4.71,2.1,8,8.8,8a16.22,16.22,0,0,0,11.2-4.4V758.13a37.6,37.6,0,0,0-10.2-1.5C520.22,756.63,518.62,760.43,518.62,764.94Z"/><path class="cls-2" d="M570.12,776.44a3.9,3.9,0,0,1-7.8,0V742.63c0-3.3-.4-5.2-1.6-7a3.22,3.22,0,0,1-.7-2,3.5,3.5,0,0,1,3.6-3.5,5,5,0,0,1,4,2.7,28.66,28.66,0,0,1,13.7-4.3c4,0,5.2,1.7,5.2,3.8a3.75,3.75,0,0,1-3.9,4c-4.1-.1-7.7-.1-12.7,3.6.1,1,.2,1.9.2,2.7Z"/><path class="cls-2" d="M618.82,773.24c-4.81,15.6-8.61,26.3-21.61,26.6a3.79,3.79,0,0,1-4-3.8,3.75,3.75,0,0,1,3.7-3.7c6.3-.3,9.1-3.7,12.1-13l-15.9-45.91a3.18,3.18,0,0,1-.2-1.4,3.8,3.8,0,0,1,7.4-1l12.5,37.91L623.72,731a3.8,3.8,0,0,1,3.6-2.6,3.9,3.9,0,0,1,3.9,3.9,5,5,0,0,1-.2,1.2Z"/></svg>